<?xml version="1.0" encoding="UTF-8" standalone="no"?>
<!DOCTYPE svg PUBLIC "-//W3C//DTD SVG 1.1//EN" "http://www.w3.org/Graphics/SVG/1.1/DTD/svg11.dtd">
<svg version="1.1" xmlns="http://www.w3.org/2000/svg" xmlns:xlink="http://www.w3.org/1999/xlink" preserveAspectRatio="xMidYMid meet" viewBox="0 0 640 640" width="640" height="640"><defs><path d="M374.51 295.03C374.51 369.82 313.79 430.54 239 430.54C164.21 430.54 103.49 369.82 103.49 295.03C103.49 220.24 164.21 159.52 239 159.52C313.79 159.52 374.51 220.24 374.51 295.03Z" id="ahY3q3WzZ"></path><path d="M346.34 292.39C346.34 351.36 298.46 399.25 239.48 399.25C180.5 399.25 132.62 351.36 132.62 292.39C132.62 233.41 180.5 185.52 239.48 185.52C298.46 185.52 346.34 233.41 346.34 292.39Z" id="a1k1SJY3Be"></path><mask id="maska3eW1DT3Nu" x="130.62" y="183.52" width="217.72" height="217.72" maskUnits="userSpaceOnUse"><rect x="130.62" y="183.52" width="217.72" height="217.72" fill="white"></rect><use xlink:href="#a1k1SJY3Be" opacity="1" fill="black"></use></mask><path d="M247.32 294.67C247.32 298.82 243.81 302.18 239.48 302.18C235.15 302.18 231.64 298.82 231.64 294.67C231.64 290.53 235.15 287.17 239.48 287.17C243.81 287.17 247.32 290.53 247.32 294.67Z" id="d1tajAllg"></path><path d="M240.2 395.5L240.2 305.62" id="a76OIKL9yp"></path><path d="M240.2 424.81L240.2 404.85" id="a1urdwUVDb"></path><path d="M250.64 466.17C244.68 459.59 241.26 454.27 240.36 450.2C239.46 446.14 239.46 442.12 240.36 438.16L240.36 434.24" id="d3jLCONPo2"></path><path d="M185.37 413.56L195.11 396.14" id="b148NkeGVp"></path><path d="M175.37 453.5C173.23 445.15 172.71 439.07 173.81 435.26C174.91 431.45 176.77 428.12 179.39 425.27L181.21 422.02" id="cfPrj1deX"></path><path d="M164.49 361.28L231.18 302.17" id="bJfaKf8q"></path><path d="M140.58 381.4L155.65 368.82" id="a1o1IAaOff"></path><path d="M113.84 411.92C115.46 403.46 117.59 397.73 120.2 394.76C122.82 391.78 125.93 389.56 129.51 388.1L132.54 385.94" id="a4F3Ctz3k"></path><path d="M114.49 336.88L133.54 330.9" id="a1CeTuPpYB"></path><path d="M79.18 357.5C83.36 349.96 87.16 345.18 90.58 343.17C94 341.16 97.64 340.02 101.5 339.75L105.05 338.63" id="b2hP3QdHFL"></path><path d="M239.48 190.26L239.48 283.82" id="b4oWzDMqqc"></path><path d="M239.46 163.03L239.46 182.36" id="b2UwJstuK3"></path><path d="M228.55 125.12C234.49 131.37 237.91 136.43 238.81 140.29C239.71 144.15 239.71 147.96 238.81 151.73L238.81 155.45" id="a1z2MgtrAt"></path><path d="M294.31 174.28L284.57 191.71" id="a7GRO3Zfi"></path><path d="M303.66 136.46C305.8 144.81 306.32 150.89 305.22 154.7C304.12 158.51 302.26 161.84 299.64 164.69L297.82 167.94" id="a3jDjzmxOV"></path><path d="M316.8 224.08L247.53 286.73" id="cb8GQmNfq"></path><path d="M337.69 207.06L322.62 219.65" id="h20jC1926b"></path><path d="M362.22 176.54C360.6 185.01 358.47 190.73 355.85 193.71C353.23 196.68 350.13 198.9 346.55 200.36L343.52 202.53" id="hantyHIvK"></path><path d="M363.04 250.85L343.99 256.82" id="b15JFb3ABy"></path><path d="M396.88 230.96C392.7 238.51 388.89 243.28 385.48 245.29C382.06 247.3 378.42 248.44 374.56 248.72L371.01 249.83" id="a17L9soDW"></path><path d="M134.9 293.12L228.2 293.34" id="bWloBhijq"></path><path d="M107.68 293.05L127.64 293.1" id="e28wTAJyGB"></path><path d="M69.74 303.9C76.01 297.97 81.07 294.56 84.93 293.67C88.8 292.79 92.61 292.79 96.38 293.7L100.09 293.71" id="aGRZOIsLz"></path><path d="M119.06 238.25L136.46 248.03" id="an16n3pDf"></path><path d="M81.25 228.81C89.61 226.69 95.7 226.19 99.5 227.3C103.31 228.41 106.63 230.28 109.48 232.9L112.72 234.72" id="c1O4Qtz6g6"></path><path d="M168.91 215.88L230.95 286.17" id="dRWnpbWtp"></path><path d="M151.93 194.94L164.49 210.04" id="dab2tObvx"></path><path d="M121.47 170.34C129.94 171.99 135.65 174.13 138.62 176.75C141.59 179.38 143.8 182.49 145.26 186.07L147.41 189.1" id="a1YM60H8mc"></path><path d="M195.78 169.7L201.4 187.82" id="a2kMC6WoOl"></path><path d="M175.98 135.81C183.51 140.02 188.27 143.83 190.28 147.25C192.28 150.67 193.41 154.31 193.68 158.17L194.78 161.72" id="betszSU4G"></path><path d="M343.13 293.87L250.89 293.92" id="b317THpbHR"></path><path d="M370.35 293.88L350.39 293.89" id="bwKuhiFl1"></path><path d="M408.26 282.92C402.01 288.87 396.96 292.29 393.1 293.19C389.24 294.09 385.42 294.09 381.65 293.2L377.94 293.2" id="b1xPE0VdEI"></path><path d="M359.13 348.71L341.7 338.98" id="gaw9QBqbb"></path><path d="M396.96 358.04C388.61 360.19 382.53 360.71 378.72 359.61C374.91 358.51 371.58 356.65 368.73 354.03L365.48 352.22" id="a29lHgacN"></path><path d="M307.26 368.65L248.24 301.91" id="cgDfViMY8"></path><path d="M326.38 392.11L313.79 377.05" id="aEBMhPBKS"></path><path d="M359.07 416.85C350.6 415.23 344.88 413.11 341.9 410.49C338.92 407.87 336.7 404.77 335.24 401.19L333.07 398.17" id="b3rv9vn6Aq"></path><path d="M282.61 417.49L276.62 398.44" id="b1zOXUYv16"></path><path d="M303.99 452.12C296.45 447.94 291.67 444.15 289.66 440.73C287.65 437.31 286.5 433.68 286.23 429.81L285.11 426.27" id="aow5d3ffW"></path><path d="M76.74 138.33C76.74 146.16 70.37 152.53 62.54 152.53C54.7 152.53 48.34 146.16 48.34 138.33C48.34 130.49 54.7 124.13 62.54 124.13C70.37 124.13 76.74 130.49 76.74 138.33Z" id="ccmDHy0T"></path><path d="M122.85 195.8C122.85 187.96 116.49 181.6 108.65 181.6C100.82 181.6 94.45 187.96 94.45 195.8C94.45 203.64 100.82 210 108.65 210C116.49 210 122.85 203.64 122.85 195.8Z" id="a1tLqHtk5H"></path><path d="M122.85 157.35C122.85 149.51 116.49 143.15 108.65 143.15C100.82 143.15 94.45 149.51 94.45 157.35C94.45 165.19 100.82 171.55 108.65 171.55C116.49 171.55 122.85 165.19 122.85 157.35Z" id="a8XDhEU3L"></path><path d="M122.85 121.18C122.85 113.35 116.49 106.98 108.65 106.98C100.82 106.98 94.45 113.35 94.45 121.18C94.45 129.02 100.82 135.38 108.65 135.38C116.49 135.38 122.85 129.02 122.85 121.18Z" id="bfCpVtUDi"></path><path d="M94.45 119.66L75 129.58" id="ebqkU8XSd"></path><path d="M95 150.51L78.14 140.69" id="bRixopga3"></path><path d="M98.6 185.04L71.09 151.02" id="aGuYoXexG"></path><path d="M150 150L121.5 128.41" id="b1fuJo9A4t"></path><path d="M77.09 174.78C77.09 166.95 70.73 160.58 62.89 160.58C55.06 160.58 48.69 166.95 48.69 174.78C48.69 182.62 55.06 188.98 62.89 188.98C70.73 188.98 77.09 182.62 77.09 174.78Z" id="avbXJ9R8D"></path><path d="M94.45 192.63L75.33 183.31" id="aCYqlWltr"></path><path d="M93.75 162.31L77.09 169.65" id="b6hYVHXObo"></path><path d="M95.73 127.69L71.97 162.33" id="bzedBNury"></path><path d="M177.4 158.2C177.4 150.36 171.04 144 163.2 144C155.36 144 149 150.36 149 158.2C149 166.04 155.36 172.4 163.2 172.4C171.04 172.4 177.4 166.04 177.4 158.2Z" id="d6h5qMC2vQ"></path><path d="M148.06 157.22L123.71 157.11" id="aJxPxgwem"></path><path d="M120.86 187.85L150 165" id="c17hebjnvG"></path><path d="M324.77 167.75L284.32 146.4" id="a1i7YjnZ56"></path><path d="M365.29 212.75L347.11 186.09" id="a6N7PtgkB"></path><path d="M387.61 322.76L386.52 285.06" id="e83mgCP4n"></path><path d="M386.83 384.62L387.72 352.42" id="a2msIgBNV"></path><path d="M382.04 257.06L377.35 239.2" id="h1BNBdNy7Z"></path><path d="M285.42 139.98C285.42 147.82 279.06 154.18 271.22 154.18C263.38 154.18 257.02 147.82 257.02 139.98C257.02 132.15 263.38 125.78 271.22 125.78C279.06 125.78 285.42 132.15 285.42 139.98Z" id="b38HYvy0y"></path><path d="M351.35 175.47C351.35 183.31 344.99 189.67 337.15 189.67C329.32 189.67 322.95 183.31 322.95 175.47C322.95 167.63 329.32 161.27 337.15 161.27C344.99 161.27 351.35 167.63 351.35 175.47Z" id="f1e1YK5KA"></path><path d="M387.86 225.01C387.86 232.84 381.5 239.21 373.66 239.21C365.82 239.21 359.46 232.84 359.46 225.01C359.46 217.17 365.82 210.81 373.66 210.81C381.5 210.81 387.86 217.17 387.86 225.01Z" id="alH0ZR0b6"></path><path d="M400.79 270.75C400.79 278.59 394.42 284.95 386.59 284.95C378.75 284.95 372.39 278.59 372.39 270.75C372.39 262.91 378.75 256.55 386.59 256.55C394.42 256.55 400.79 262.91 400.79 270.75Z" id="cEu8holGV"></path><path d="M401.44 337.53C401.44 345.37 395.08 351.73 387.24 351.73C379.41 351.73 373.04 345.37 373.04 337.53C373.04 329.69 379.41 323.33 387.24 323.33C395.08 323.33 401.44 329.69 401.44 337.53Z" id="a1jcld4SyW"></path><path d="M401.21 399.39C401.21 407.23 394.85 413.59 387.01 413.59C379.17 413.59 372.81 407.23 372.81 399.39C372.81 391.55 379.17 385.19 387.01 385.19C394.85 385.19 401.21 391.55 401.21 399.39Z" id="c3YgaqWhDd"></path><path d="M226.2 140C226.2 147.84 219.84 154.2 212 154.2C204.16 154.2 197.8 147.84 197.8 140C197.8 132.16 204.16 125.8 212 125.8C219.84 125.8 226.2 132.16 226.2 140Z" id="b5m6pZYiMo"></path><path d="M256.25 139.61L227.21 139.49" id="bdXdew9jw"></path><path d="M197.27 142.89L177.96 153.19" id="a4SdorMtEw"></path></defs><g><g><g><g><g><use xlink:href="#ahY3q3WzZ" opacity="1" fill-opacity="0" stroke="#d3ae47" stroke-width="8" stroke-opacity="1"></use></g></g><g><g mask="url(#maska3eW1DT3Nu)"><use xlink:href="#a1k1SJY3Be" opacity="1" fill-opacity="0" stroke="#000000" stroke-width="2" stroke-opacity="1"></use></g><g><use xlink:href="#a1k1SJY3Be" opacity="1" fill-opacity="0" stroke="#d3ae47" stroke-width="8" stroke-opacity="1"></use></g></g><g><g><use xlink:href="#d1tajAllg" opacity="1" fill-opacity="0" stroke="#d3ae47" stroke-width="8" stroke-opacity="1"></use></g></g><g><g><g><use xlink:href="#a76OIKL9yp" opacity="1" fill-opacity="0" stroke="#d3ae47" stroke-width="8" stroke-opacity="1"></use></g></g><g><g><use xlink:href="#a1urdwUVDb" opacity="1" fill-opacity="0" stroke="#d3ae47" stroke-width="8" stroke-opacity="1"></use></g></g><g><g><use xlink:href="#d3jLCONPo2" opacity="1" fill-opacity="0" stroke="#d3ae47" stroke-width="8" stroke-opacity="1"></use></g></g><g><g><use xlink:href="#b148NkeGVp" opacity="1" fill-opacity="0" stroke="#d3ae47" stroke-width="8" stroke-opacity="1"></use></g></g><g><g><use xlink:href="#cfPrj1deX" opacity="1" fill-opacity="0" stroke="#d3ae47" stroke-width="8" stroke-opacity="1"></use></g></g><g><g><g><use xlink:href="#bJfaKf8q" opacity="1" fill-opacity="0" stroke="#d3ae47" stroke-width="8" stroke-opacity="1"></use></g></g><g><g><use xlink:href="#a1o1IAaOff" opacity="1" fill-opacity="0" stroke="#d3ae47" stroke-width="8" stroke-opacity="1"></use></g></g><g><g><use xlink:href="#a4F3Ctz3k" opacity="1" fill-opacity="0" stroke="#d3ae47" stroke-width="8" stroke-opacity="1"></use></g></g><g><g><use xlink:href="#a1CeTuPpYB" opacity="1" fill-opacity="0" stroke="#d3ae47" stroke-width="8" stroke-opacity="1"></use></g></g><g><g><use xlink:href="#b2hP3QdHFL" opacity="1" fill-opacity="0" stroke="#d3ae47" stroke-width="8" stroke-opacity="1"></use></g></g></g></g><g><g><g><use xlink:href="#b4oWzDMqqc" opacity="1" fill-opacity="0" stroke="#d3ae47" stroke-width="8" stroke-opacity="1"></use></g></g><g><g><use xlink:href="#b2UwJstuK3" opacity="1" fill-opacity="0" stroke="#d3ae47" stroke-width="8" stroke-opacity="1"></use></g></g><g><g><use xlink:href="#a1z2MgtrAt" opacity="1" fill-opacity="0" stroke="#d3ae47" stroke-width="8" stroke-opacity="1"></use></g></g><g><g><use xlink:href="#a7GRO3Zfi" opacity="1" fill-opacity="0" stroke="#d3ae47" stroke-width="8" stroke-opacity="1"></use></g></g><g><g><use xlink:href="#a3jDjzmxOV" opacity="1" fill-opacity="0" stroke="#d3ae47" stroke-width="8" stroke-opacity="1"></use></g></g><g><g><g><use xlink:href="#cb8GQmNfq" opacity="1" fill-opacity="0" stroke="#d3ae47" stroke-width="8" stroke-opacity="1"></use></g></g><g><g><use xlink:href="#h20jC1926b" opacity="1" fill-opacity="0" stroke="#d3ae47" stroke-width="8" stroke-opacity="1"></use></g></g><g><g><use xlink:href="#hantyHIvK" opacity="1" fill-opacity="0" stroke="#d3ae47" stroke-width="8" stroke-opacity="1"></use></g></g><g><g><use xlink:href="#b15JFb3ABy" opacity="1" fill-opacity="0" stroke="#d3ae47" stroke-width="8" stroke-opacity="1"></use></g></g><g><g><use xlink:href="#a17L9soDW" opacity="1" fill-opacity="0" stroke="#d3ae47" stroke-width="8" stroke-opacity="1"></use></g></g></g></g><g><g><g><use xlink:href="#bWloBhijq" opacity="1" fill-opacity="0" stroke="#d3ae47" stroke-width="8" stroke-opacity="1"></use></g></g><g><g><use xlink:href="#e28wTAJyGB" opacity="1" fill-opacity="0" stroke="#d3ae47" stroke-width="8" stroke-opacity="1"></use></g></g><g><g><use xlink:href="#aGRZOIsLz" opacity="1" fill-opacity="0" stroke="#d3ae47" stroke-width="8" stroke-opacity="1"></use></g></g><g><g><use xlink:href="#an16n3pDf" opacity="1" fill-opacity="0" stroke="#d3ae47" stroke-width="8" stroke-opacity="1"></use></g></g><g><g><use xlink:href="#c1O4Qtz6g6" opacity="1" fill-opacity="0" stroke="#d3ae47" stroke-width="8" stroke-opacity="1"></use></g></g><g><g><g><use xlink:href="#dRWnpbWtp" opacity="1" fill-opacity="0" stroke="#d3ae47" stroke-width="8" stroke-opacity="1"></use></g></g><g><g><use xlink:href="#dab2tObvx" opacity="1" fill-opacity="0" stroke="#d3ae47" stroke-width="8" stroke-opacity="1"></use></g></g><g><g><use xlink:href="#a1YM60H8mc" opacity="1" fill-opacity="0" stroke="#d3ae47" stroke-width="8" stroke-opacity="1"></use></g></g><g><g><use xlink:href="#a2kMC6WoOl" opacity="1" fill-opacity="0" stroke="#d3ae47" stroke-width="8" stroke-opacity="1"></use></g></g><g><g><use xlink:href="#betszSU4G" opacity="1" fill-opacity="0" stroke="#d3ae47" stroke-width="8" stroke-opacity="1"></use></g></g></g></g><g><g><g><use xlink:href="#b317THpbHR" opacity="1" fill-opacity="0" stroke="#d3ae47" stroke-width="8" stroke-opacity="1"></use></g></g><g><g><use xlink:href="#bwKuhiFl1" opacity="1" fill-opacity="0" stroke="#d3ae47" stroke-width="8" stroke-opacity="1"></use></g></g><g><g><use xlink:href="#b1xPE0VdEI" opacity="1" fill-opacity="0" stroke="#d3ae47" stroke-width="8" stroke-opacity="1"></use></g></g><g><g><use xlink:href="#gaw9QBqbb" opacity="1" fill-opacity="0" stroke="#d3ae47" stroke-width="8" stroke-opacity="1"></use></g></g><g><g><use xlink:href="#a29lHgacN" opacity="1" fill-opacity="0" stroke="#d3ae47" stroke-width="8" stroke-opacity="1"></use></g></g><g><g><g><use xlink:href="#cgDfViMY8" opacity="1" fill-opacity="0" stroke="#d3ae47" stroke-width="8" stroke-opacity="1"></use></g></g><g><g><use xlink:href="#aEBMhPBKS" opacity="1" fill-opacity="0" stroke="#d3ae47" stroke-width="8" stroke-opacity="1"></use></g></g><g><g><use xlink:href="#b3rv9vn6Aq" opacity="1" fill-opacity="0" stroke="#d3ae47" stroke-width="8" stroke-opacity="1"></use></g></g><g><g><use xlink:href="#b1zOXUYv16" opacity="1" fill-opacity="0" stroke="#d3ae47" stroke-width="8" stroke-opacity="1"></use></g></g><g><g><use xlink:href="#aow5d3ffW" opacity="1" fill-opacity="0" stroke="#d3ae47" stroke-width="8" stroke-opacity="1"></use></g></g></g></g></g><g><g><g><use xlink:href="#ccmDHy0T" opacity="1" fill="#326786" fill-opacity="1"></use></g><g><use xlink:href="#a1tLqHtk5H" opacity="1" fill="#326786" fill-opacity="1"></use></g><g><use xlink:href="#a8XDhEU3L" opacity="1" fill="#326786" fill-opacity="1"></use></g><g><use xlink:href="#bfCpVtUDi" opacity="1" fill="#326786" fill-opacity="1"></use></g><g><g><use xlink:href="#ebqkU8XSd" opacity="1" fill-opacity="0" stroke="#000000" stroke-width="2" stroke-opacity="1"></use></g></g><g><g><use xlink:href="#bRixopga3" opacity="1" fill-opacity="0" stroke="#000000" stroke-width="2" stroke-opacity="1"></use></g></g><g><g><use xlink:href="#aGuYoXexG" opacity="1" fill-opacity="0" stroke="#000000" stroke-width="2" stroke-opacity="1"></use></g></g><g><g><use xlink:href="#b1fuJo9A4t" opacity="1" fill-opacity="0" stroke="#000000" stroke-width="2" stroke-opacity="1"></use></g></g><g><use xlink:href="#avbXJ9R8D" opacity="1" fill="#326786" fill-opacity="1"></use></g><g><g><use xlink:href="#aCYqlWltr" opacity="1" fill-opacity="0" stroke="#000000" stroke-width="2" stroke-opacity="1"></use></g></g><g><g><use xlink:href="#b6hYVHXObo" opacity="1" fill-opacity="0" stroke="#000000" stroke-width="2" stroke-opacity="1"></use></g></g><g><g><use xlink:href="#bzedBNury" opacity="1" fill-opacity="0" stroke="#000000" stroke-width="2" stroke-opacity="1"></use></g></g><g><use xlink:href="#d6h5qMC2vQ" opacity="1" fill="#326786" fill-opacity="1"></use></g><g><g><use xlink:href="#aJxPxgwem" opacity="1" fill-opacity="0" stroke="#000000" stroke-width="2" stroke-opacity="1"></use></g></g><g><g><use xlink:href="#c17hebjnvG" opacity="1" fill-opacity="0" stroke="#000000" stroke-width="2" stroke-opacity="1"></use></g></g></g></g><g><g><g><g><g><g><g><use xlink:href="#a1i7YjnZ56" opacity="1" fill-opacity="0" stroke="#060606" stroke-width="2" stroke-opacity="1"></use></g></g></g><g><g><use xlink:href="#a6N7PtgkB" opacity="1" fill-opacity="0" stroke="#060606" stroke-width="2" stroke-opacity="1"></use></g></g><g><g><g><g><use xlink:href="#e83mgCP4n" opacity="1" fill-opacity="0" stroke="#060606" stroke-width="2" stroke-opacity="1"></use></g></g><g><g><use xlink:href="#a2msIgBNV" opacity="1" fill-opacity="0" stroke="#060606" stroke-width="2" stroke-opacity="1"></use></g></g></g><g><g><use xlink:href="#h1BNBdNy7Z" opacity="1" fill-opacity="0" stroke="#060606" stroke-width="2" stroke-opacity="1"></use></g></g></g></g></g><g><use xlink:href="#b38HYvy0y" opacity="1" fill="#326786" fill-opacity="1"></use></g><g><use xlink:href="#f1e1YK5KA" opacity="1" fill="#326786" fill-opacity="1"></use></g><g><use xlink:href="#alH0ZR0b6" opacity="1" fill="#326786" fill-opacity="1"></use></g><g><use xlink:href="#cEu8holGV" opacity="1" fill="#326786" fill-opacity="1"></use></g><g><use xlink:href="#a1jcld4SyW" opacity="1" fill="#326786" fill-opacity="1"></use></g><g><use xlink:href="#c3YgaqWhDd" opacity="1" fill="#326786" fill-opacity="1"></use></g></g><g><use xlink:href="#b5m6pZYiMo" opacity="1" fill="#326786" fill-opacity="1"></use></g><g><g><use xlink:href="#bdXdew9jw" opacity="1" fill-opacity="0" stroke="#000000" stroke-width="2" stroke-opacity="1"></use></g></g><g><g><use xlink:href="#a4SdorMtEw" opacity="1" fill-opacity="0" stroke="#000000" stroke-width="2" stroke-opacity="1"></use></g></g></g></g></g></svg>